Coordinates
version=1
nRows=16
nColumns=38
inDegrees=no

Units are S.I. units (second, meters, Newtons, ...)
If the header above contains a line with 'inDegrees', this indicates whether rotational values are in degrees (yes) or radians (no).

endheader
time	pelvis_tilt	pelvis_list	pelvis_rotation	pelvis_tx	pelvis_ty	pelvis_tz	hip_flexion_r	hip_adduction_r	hip_rotation_r	knee_angle_r	ankle_angle_r	subtalar_angle_r	mtp_angle_r	hip_flexion_l	hip_adduction_l	hip_rotation_l	knee_angle_l	ankle_angle_l	subtalar_angle_l	mtp_angle_l	lumbar_extension	lumbar_bending	lumbar_rotation	arm_flex_r	arm_add_r	arm_rot_r	elbow_flex_r	pro_sup_r	wrist_flex_r	wrist_dev_r	arm_flex_l	arm_add_l	arm_rot_l	elbow_flex_l	pro_sup_l	wrist_flex_l	wrist_dev_l
8.2025	-0.234492	-0.0289437	-3.09591	-0.25053	0.973606	0.0655759	0.269357	-0.112362	-0.285382	0.568949	0.0191301	0	0	-0.35595	0.0938239	0.0681329	0.145914	0.254794	0	0	-0.47451	0.00988001	-0.168499	0.0484322	-0.345245	1.57199	0.325029	-0.00201246	0	0	0.762254	-0.442798	1.29999	0.758246	0.414632	0	0
8.21249	-0.232761	-0.0297186	-3.09796	-0.249512	0.971331	0.0653442	0.272998	-0.105611	-0.284611	0.508673	0.0215328	0	0	-0.370838	0.0945452	0.0703128	0.141904	0.265754	0	0	-0.473573	0.00907426	-0.171129	0.0334338	-0.350618	1.57203	0.322572	-0.00134446	0	0	0.77842	-0.452902	1.26631	0.779682	0.440101	0	0
8.22248	-0.230226	-0.0302574	-3.09987	-0.248681	0.968951	0.0650566	0.276568	-0.0982678	-0.282306	0.449217	0.0251695	0	0	-0.384521	0.094879	0.0722141	0.13891	0.276831	0	0	-0.471559	0.0086263	-0.173831	0.0191276	-0.355582	1.57187	0.320098	-0.000811658	0	0	0.792206	-0.462426	1.2329	0.800285	0.464556	0	0
8.23247	-0.226995	-0.0304992	-3.10152	-0.248037	0.966495	0.0647211	0.280153	-0.0903754	-0.278191	0.391698	0.0302894	0	0	-0.397085	0.0947081	0.0738931	0.136984	0.28791	0	0	-0.468588	0.00865876	-0.176625	0.00553004	-0.360132	1.57142	0.317606	-0.000407898	0	0	0.803613	-0.471323	1.19982	0.820104	0.48802	0	0
8.24247	-0.223229	-0.0303968	-3.10279	-0.247579	0.963997	0.0643453	0.283806	-0.0820231	-0.272076	0.33732	0.0369319	0	0	-0.408653	0.0939248	0.0753991	0.136204	0.298866	0	0	-0.46485	0.00927355	-0.179527	-0.00732514	-0.364263	1.57058	0.315106	-0.000118942	0	0	0.812662	-0.479566	1.16715	0.839219	0.510499	0	0
8.25246	-0.219124	-0.0299178	-3.10358	-0.247304	0.961489	0.0639365	0.287549	-0.073348	-0.263919	0.287327	0.0448847	0	0	-0.419371	0.0924342	0.0767721	0.13667	0.30956	0	0	-0.460576	0.0105489	-0.182559	-0.0193918	-0.367969	1.56924	0.312617	7.35135e-05	0	0	0.8194	-0.487139	1.13495	0.857716	0.531952	0	0
8.26245	-0.214901	-0.0290436	-3.10378	-0.247208	0.959005	0.0635019	0.291388	-0.0645264	-0.2539	0.242966	0.0536773	0	0	-0.429406	0.0901541	0.0780489	0.13849	0.319831	0	0	-0.456023	0.0125427	-0.185748	-0.0306154	-0.371244	1.5673	0.310169	0.000188956	0	0	0.823901	-0.494033	1.10329	0.875678	0.55229	0	0
8.27244	-0.210786	-0.0277699	-3.10332	-0.247288	0.956575	0.0630486	0.295327	-0.0557602	-0.242444	0.205423	0.0626316	0	0	-0.43892	0.0870185	0.0792588	0.141784	0.329473	0	0	-0.45145	0.0152901	-0.189124	-0.040941	-0.374076	1.56466	0.307794	0.000246141	0	0	0.826259	-0.500245	1.0723	0.893169	0.571385	0	0
8.28243	-0.206988	-0.0261047	-3.10211	-0.247542	0.954229	0.0625827	0.299379	-0.0472545	-0.230196	0.175748	0.070932	0	0	-0.448046	0.0829787	0.0804094	0.146684	0.33824	0	0	-0.447087	0.018805	-0.192728	-0.0503157	-0.376453	1.56128	0.305531	0.000261941	0	0	0.826568	-0.505779	1.04212	0.910237	0.589117	0	0
8.29242	-0.203682	-0.0240622	-3.10009	-0.247971	0.951989	0.0621089	0.303561	-0.0391894	-0.217933	0.15473	0.0776938	0	0	-0.456865	0.0779992	0.0814805	0.153334	0.345838	0	0	-0.443111	0.0230851	-0.196595	-0.058691	-0.37836	1.55716	0.303421	0.000250778	0	0	0.824914	-0.510645	1.01287	0.926899	0.605409	0	0
8.30241	-0.200993	-0.0216506	-3.09722	-0.248578	0.949877	0.0616302	0.307868	-0.0316886	-0.206458	0.14277	0.0820274	0	0	-0.465394	0.0720475	0.0824185	0.161891	0.351942	0	0	-0.439636	0.0281246	-0.200753	-0.0660219	-0.379784	1.55241	0.301512	0.000224463	0	0	0.821365	-0.514851	0.984681	0.943138	0.620252	0	0
8.3124	-0.198995	-0.0188636	-3.09347	-0.249367	0.947909	0.061148	0.312235	-0.0248034	-0.196467	0.139752	0.0831224	0	0	-0.473572	0.0650862	0.0831388	0.172534	0.356187	0	0	-0.436701	0.0339244	-0.205213	-0.0722652	-0.380717	1.54725	0.299841	0.000192306	0	0	0.815969	-0.518394	0.957654	0.958887	0.633723	0	0
8.32239	-0.197707	-0.0156807	-3.08886	-0.250342	0.946101	0.0606625	0.316527	-0.0185192	-0.188476	0.145031	0.0803773	0	0	-0.481258	0.0570714	0.083524	0.185466	0.358171	0	0	-0.43428	0.0404921	-0.209965	-0.0773821	-0.381144	1.54204	0.298432	0.000161385	0	0	0.808756	-0.521261	0.931874	0.974029	0.64599	0	0
8.33238	-0.197104	-0.0120792	-3.08339	-0.251507	0.944468	0.060173	0.320559	-0.0127843	-0.182813	0.157538	0.0735671	0	0	-0.48823	0.0479634	0.0834363	0.200921	0.35745	0	0	-0.432291	0.0478292	-0.214975	-0.0813464	-0.381054	1.53719	0.297294	0.000136859	0	0	0.799771	-0.523419	0.907451	0.988385	0.657257	0	0
8.34237	-0.197118	-0.00805035	-3.0771	-0.252861	0.943019	0.0596783	0.324145	-0.00754325	-0.179652	0.175967	0.062974	0	0	-0.494191	0.0377411	0.0827326	0.21916	0.353543	0	0	-0.430609	0.0559112	-0.220177	-0.0841459	-0.380429	1.53309	0.296427	0.000122278	0	0	0.789083	-0.524818	0.884532	1.00172	0.667726	0	0
8.35237	-0.197648	-0.00361152	-3.07006	-0.254397	0.941766	0.0591758	0.327135	-0.00275917	-0.179044	0.198959	0.0493812	0	0	-0.498777	0.0264134	0.0812696	0.24047	0.345939	0	0	-0.429083	0.0646729	-0.225478	-0.0857818	-0.379253	1.53009	0.295817	0.000119833	0	0	0.776809	-0.525396	0.863321	1.01375	0.677576	0	0
